# xmcd
#
# Track frame offsets:
#   150
#   16845
#   31528
#   47541
#   62749
#   77690
#   94837
#   108456
#   126268
#   140577
#   157068
#   170822
#   182037
#   199380
#   214531
#
# Disc length: 3058 seconds
#
# Revision: 0
# Processed by: cddbd v1.5.2PL0 Copyright (c) Steve Scherf et al.
# Submitted via: GXTranscoder 2.0.1939
#
DISCID=cd0bf00f
DTITLE=eskobar - 'til we're dead
DYEAR=2000
DGENRE=Pop
TTITLE0=tumbling down
TTITLE1=on a train
TTITLE2=good day for dying
TTITLE3=sun in my eyes
TTITLE4=angels
TTITLE5=someone told me
TTITLE6=so
TTITLE7=she's not there
TTITLE8=love
TTITLE9=on my side
TTITLE10=unknown
TTITLE11=unknown
TTITLE12=unknown
TTITLE13=unknown
TTITLE14=unknown
EXTD=
EXTT0=
EXTT1=
EXTT2=
EXTT3=
EXTT4=
EXTT5=
EXTT6=
EXTT7=
EXTT8=
EXTT9=
EXTT10=
EXTT11=
EXTT12=
EXTT13=
EXTT14=
PLAYORDER=
